<?xml version="1.0" encoding="utf-8"?>
<!-- Generator: Adobe Illustrator 16.0.0, SVG Export Plug-In . SVG Version: 6.00 Build 0)  -->
<!DOCTYPE svg PUBLIC "-//W3C//DTD SVG 1.1//EN" "http://www.w3.org/Graphics/SVG/1.1/DTD/svg11.dtd">
<svg version="1.1" id="Capa_1" xmlns="http://www.w3.org/2000/svg" xmlns:xlink="http://www.w3.org/1999/xlink" x="0px" y="0px"
	 width="180px" height="180px" viewBox="49.974 -29 180 180" enable-background="new 49.974 -29 180 180" xml:space="preserve">
<g id="Layer_1" display="none">
	<g display="inline">
		<path fill="#84A939" d="M255.553,42.158l-27.462,79.156h-21.002l-12.276-36.832l-12.276,36.832h-20.678l-27.302-79.156h22.94
			l14.539,48.14l14.7-48.14h16.315l14.539,48.14l15.023-48.14H255.553z"/>
		<path fill="#84A939" d="M331.799,82.564c0,2.467-0.056,4.347-0.161,5.635h-53.472c1.185,4.9,3.878,8.439,8.077,10.617
			c4.848,2.615,10.823,3.922,17.933,3.922c6.999,0,15.346-1.832,25.039-5.494l-6.139,21.302c-5.604,2.278-13.356,3.415-23.264,3.415
			c-12.276,0-22.455-3.443-30.532-10.339c-8.508-7.323-12.761-17.067-12.761-29.24c0-11.198,3.715-20.758,11.146-28.672
			c7.432-7.916,16.746-11.875,27.946-11.875c11.523,0,20.569,3.974,27.141,11.915C328.783,61.155,331.799,70.76,331.799,82.564z
			 M310.313,73.82c-0.754-3.721-1.938-6.434-3.554-8.135c-2.907-3.084-6.947-4.626-12.115-4.626
			c-8.724,0-14.109,4.255-16.155,12.761H310.313z"/>
		<path fill="#84A939" d="M423.07,81.656c0,10.467-3.813,19.803-11.438,28.002c-7.625,8.203-16.594,12.303-26.902,12.303
			c-7.304,0-14.068-2.314-20.299-6.947v6.301h-20.677V33.92h-8.239l6.01-20.355h22.906v45.879l5.479-17.286h7.572
			c7.945,0,13.907,0.54,17.879,1.618c5.583,1.404,10.688,4.372,15.307,8.903C418.936,60.665,423.07,70.325,423.07,81.656z
			 M402.394,81.409c0-5.431-1.994-10.099-5.978-14.009c-3.338-3.256-8.4-4.887-15.186-4.887h-16.8v16.613
			c0,6.626,1.561,11.947,4.686,15.965c3.445,4.346,8.399,6.516,14.861,6.516c5.384,0,9.798-2.008,13.247-6.026
			C400.669,91.563,402.394,86.84,402.394,81.409z"/>
	</g>
	<g display="inline">
		<path fill="#84A939" d="M106.41,41.05h21.899l-18.904,39.867l18.904,39.866H106.41L87.695,80.917L106.41,41.05z"/>
		<path fill="#84A939" d="M705.329,120.783h-21.711l18.717-39.866L683.618,41.05h21.711l18.904,39.867L705.329,120.783z"/>
	</g>
	<g display="inline">
		<path d="M680.688,26.216V11.435h-6.581v-2.75h16.844v2.75h-6.58v14.781H680.688z"/>
		<path d="M692.129,26.216V8.685h5.303l6.14,13.602l6.088-13.602h5.255v17.531h-3.462L711.6,11.73h-0.05l-6.481,14.486h-3.143
			l-6.434-14.486h-0.05l0.147,14.486H692.129z"/>
	</g>
	<g display="inline">
		<path fill="#84A939" d="M-58.674,194.467c-3.452,3.45-8.22,5.584-13.484,5.584c-5.264,0-10.031-2.134-13.482-5.584L-195.989,84.12
			L-85.64-26.229c3.451-3.449,8.219-5.584,13.482-5.584c5.265,0,10.032,2.135,13.483,5.584L51.673,84.12L-58.674,194.467z"/>
		<g>
			<path fill="#FFFFFF" d="M-90.688,33.86l-11.852-12.145c-1.844-1.888-4.87-1.924-6.758-0.079l-61.1,59.703
				c-1.89,1.845-1.926,4.871-0.082,6.759l19.322,18.189v-6.659l60.384-59.009C-88.882,38.775-88.846,35.751-90.688,33.86z"/>
			<path fill="#FFFFFF" d="M-148.039,108.378l42.563,41.168c1.89,1.843,4.917,1.808,6.756-0.08l11.854-12.147
				c1.84-1.887,1.807-4.912-0.081-6.758l-41.85-40.472v-6.657l-19.24,18.471L-148.039,108.378L-148.039,108.378z"/>
			<path fill="#FFFFFF" d="M-73.751,117.729c-1.745,4.519-6.822,6.764-11.342,5.021l-4.496-1.739
				c-4.521-1.744-6.767-6.822-5.021-11.34l21.746-56.729c1.744-4.517,6.821-6.764,11.341-5.021l4.496,1.738
				c4.521,1.748,6.766,6.826,5.021,11.342L-73.751,117.729z"/>
			<path fill="#FFFFFF" d="M-54.479,136.816l11.852,12.146c1.844,1.888,4.87,1.923,6.758,0.081l61.1-59.704
				c1.89-1.846,1.925-4.872,0.082-6.761L5.988,64.391v6.659l-60.384,59.009C-56.285,131.902-56.321,134.928-54.479,136.816z"/>
			<path fill="#FFFFFF" d="M2.977,62.186l-42.563-41.168c-1.89-1.842-4.916-1.806-6.756,0.08l-11.854,12.148
				c-1.84,1.888-1.807,4.913,0.082,6.759l41.851,40.473v6.656l5.755-4.927c0.629-0.24,1.218-0.603,1.717-1.114l2.115-2.164
				L2.977,68.66V62.186z"/>
		</g>
	</g>
	<g display="inline">
		<g>
			<path fill="#2F3F1A" d="M148.192,142.542c0.146-0.315,0.366-0.681,0.66-1.099c0.293-0.42,0.673-0.805,1.146-1.162
				c0.47-0.356,1.045-0.66,1.727-0.911c0.68-0.25,1.479-0.377,2.401-0.377c1.049,0,1.948,0.151,2.702,0.456s1.399,0.686,1.947,1.148
				v-6.283h3.141v21.98H158.9v-1.318c-0.545,0.481-1.208,0.885-1.995,1.209c-0.782,0.324-1.711,0.485-2.778,0.485
				c-0.922,0-1.722-0.123-2.401-0.377c-0.681-0.25-1.256-0.554-1.727-0.909c-0.473-0.357-0.853-0.742-1.146-1.162
				s-0.515-0.785-0.66-1.1V142.542L148.192,142.542z M158.776,143.077c-0.358-0.418-0.859-0.79-1.51-1.115
				c-0.648-0.323-1.434-0.487-2.354-0.487c-0.523,0-0.984,0.063-1.381,0.188c-0.397,0.125-0.744,0.278-1.034,0.454
				c-0.297,0.179-0.541,0.371-0.741,0.583c-0.199,0.208-0.338,0.397-0.422,0.565v9.137c0.103,0.168,0.252,0.356,0.437,0.564
				c0.189,0.209,0.43,0.401,0.727,0.582c0.29,0.18,0.636,0.329,1.034,0.455c0.396,0.126,0.857,0.188,1.381,0.188
				c0.921,0,1.706-0.155,2.354-0.469c0.65-0.316,1.151-0.691,1.51-1.131V143.077z"/>
			<path fill="#2F3F1A" d="M167.096,143.107c0.209-0.44,0.501-0.903,0.88-1.396c0.375-0.492,0.857-0.941,1.443-1.354
				c0.587-0.405,1.275-0.748,2.074-1.019c0.794-0.271,1.716-0.409,2.764-0.409c1.045,0,1.966,0.137,2.761,0.409
				c0.796,0.271,1.478,0.603,2.042,0.989c0.566,0.389,1.022,0.795,1.366,1.225c0.345,0.428,0.6,0.813,0.768,1.146v5.873h-10.957
				v3.328c0.271,0.607,0.741,1.149,1.412,1.634c0.668,0.479,1.538,0.722,2.607,0.722c1.065,0,1.935-0.242,2.604-0.722
				c0.671-0.483,1.145-1.026,1.415-1.634v-1.1h2.919v2.166c-0.187,0.357-0.455,0.756-0.8,1.193
				c-0.346,0.439-0.801,0.848-1.366,1.227c-0.563,0.375-1.238,0.694-2.022,0.957c-0.786,0.26-1.703,0.393-2.748,0.393
				c-1.047,0-1.97-0.135-2.764-0.408c-0.799-0.271-1.487-0.612-2.074-1.021c-0.585-0.41-1.067-0.859-1.443-1.352
				c-0.379-0.492-0.671-0.958-0.88-1.396V143.107L167.096,143.107z M178.275,146.374v-2.606c-0.271-0.608-0.744-1.152-1.415-1.634
				c-0.668-0.481-1.537-0.721-2.604-0.721c-1.07,0-1.939,0.239-2.607,0.721c-0.67,0.481-1.142,1.024-1.412,1.634v2.606H178.275z"/>
			<path fill="#2F3F1A" d="M186,150.99h2.92v1.664c0.292,0.377,0.749,0.738,1.366,1.082c0.617,0.348,1.438,0.52,2.464,0.52
				s1.848-0.172,2.466-0.52c0.616-0.344,1.072-0.705,1.366-1.082v-2.008c-0.23-0.357-0.606-0.655-1.13-0.896
				s-1.162-0.445-1.915-0.611l-2.168-0.441c-1.612-0.334-2.842-0.762-3.688-1.285c-0.849-0.523-1.411-1.006-1.68-1.445v-3.925
				c0.167-0.229,0.42-0.524,0.753-0.879c0.333-0.356,0.779-0.697,1.334-1.021c0.555-0.326,1.215-0.608,1.978-0.849
				c0.766-0.241,1.659-0.362,2.686-0.362s1.927,0.121,2.701,0.362c0.773,0.24,1.432,0.522,1.979,0.849
				c0.544,0.323,0.981,0.664,1.319,1.021c0.333,0.354,0.585,0.649,0.752,0.879v2.574h-2.919v-1.603
				c-0.293-0.377-0.75-0.738-1.366-1.082c-0.618-0.346-1.438-0.518-2.466-0.518c-1.026,0-1.848,0.172-2.464,0.518
				c-0.617,0.344-1.074,0.705-1.366,1.082v1.729c0.481,0.67,1.518,1.162,3.107,1.477l2.073,0.438
				c1.612,0.357,2.848,0.791,3.706,1.304c0.859,0.515,1.423,0.991,1.695,1.433v4.236c-0.167,0.25-0.419,0.549-0.752,0.896
				c-0.338,0.344-0.782,0.685-1.336,1.02s-1.214,0.617-1.977,0.85c-0.765,0.229-1.659,0.346-2.686,0.346s-1.92-0.116-2.686-0.346
				c-0.763-0.231-1.423-0.514-1.978-0.85c-0.555-0.334-1.001-0.68-1.334-1.035c-0.333-0.357-0.586-0.65-0.753-0.881v-2.639H186z"/>
			<path fill="#2F3F1A" d="M204.088,149.168c0.125-0.189,0.324-0.443,0.596-0.768c0.271-0.325,0.648-0.635,1.13-0.926
				c0.482-0.295,1.08-0.553,1.792-0.771c0.709-0.219,1.568-0.329,2.573-0.329c1.11,0,2.066,0.146,2.874,0.438
				c0.806,0.293,1.48,0.649,2.026,1.069v-4.114c-0.273-0.627-0.738-1.18-1.397-1.65c-0.661-0.469-1.555-0.704-2.686-0.704
				c-0.565,0-1.058,0.058-1.475,0.172c-0.422,0.115-0.771,0.257-1.053,0.424c-0.283,0.167-0.519,0.347-0.708,0.534
				c-0.187,0.188-0.323,0.357-0.408,0.502v1.508h-2.921v-2.512c0.105-0.146,0.305-0.393,0.598-0.74
				c0.292-0.345,0.702-0.689,1.226-1.035c0.522-0.344,1.178-0.654,1.964-0.926c0.784-0.271,1.711-0.408,2.777-0.408
				c1.067,0,2.011,0.137,2.828,0.408c0.813,0.271,1.518,0.613,2.103,1.02c0.585,0.41,1.066,0.859,1.443,1.353
				c0.379,0.493,0.662,0.956,0.848,1.396v13.189h-3.046v-1.414c-0.543,0.484-1.239,0.912-2.086,1.29
				c-0.849,0.378-1.839,0.565-2.968,0.565c-0.986,0-1.833-0.104-2.544-0.315c-0.713-0.207-1.306-0.452-1.775-0.735
				c-0.472-0.281-0.844-0.576-1.115-0.881c-0.271-0.303-0.471-0.537-0.596-0.705V149.168z M207.165,152.841
				c0.104,0.104,0.252,0.242,0.44,0.409c0.188,0.169,0.428,0.331,0.721,0.486c0.293,0.156,0.642,0.293,1.037,0.408
				c0.397,0.115,0.859,0.174,1.383,0.174c1.088,0,1.992-0.188,2.715-0.564c0.723-0.378,1.262-0.807,1.618-1.289v-1.884
				c-0.336-0.481-0.871-0.91-1.604-1.288c-0.732-0.375-1.643-0.564-2.729-0.564c-1.049,0-1.849,0.164-2.402,0.488
				s-0.948,0.621-1.178,0.895L207.165,152.841L207.165,152.841z"/>
			<path fill="#2F3F1A" d="M223.149,153.941h4.114v-12.217h-4.114v-2.354h7.099v2.229c0.586-0.606,1.396-1.129,2.432-1.57
				c1.037-0.439,2.351-0.659,3.943-0.659c0.082,0,0.183,0,0.299,0c0.114,0,0.285,0.011,0.517,0.032v2.764
				c-0.252-0.02-0.445-0.032-0.583-0.032c-0.135,0-0.233,0-0.297,0c-1.508,0-2.781,0.173-3.815,0.519
				c-1.035,0.344-1.816,0.759-2.336,1.24v10.049h6.151v2.354h-13.409V153.941L223.149,153.941z"/>
			<path fill="#2F3F1A" d="M241.833,153.941h4.112v-12.217h-4.112v-2.354h7.098v2.229c0.583-0.606,1.396-1.129,2.432-1.57
				c1.036-0.439,2.353-0.659,3.94-0.659c0.087,0,0.184,0,0.301,0c0.114,0,0.286,0.011,0.518,0.032v2.764
				c-0.25-0.02-0.444-0.032-0.583-0.032c-0.138,0-0.235,0-0.297,0c-1.509,0-2.779,0.173-3.815,0.519
				c-1.036,0.344-1.816,0.759-2.338,1.24v10.049h6.154v2.354h-13.409V153.941z"/>
			<path fill="#2F3F1A" d="M260.454,143.107c0.188-0.44,0.472-0.903,0.85-1.396c0.376-0.492,0.854-0.941,1.428-1.354
				c0.575-0.405,1.257-0.748,2.04-1.019c0.787-0.271,1.693-0.409,2.719-0.409s1.932,0.137,2.718,0.409
				c0.783,0.271,1.464,0.613,2.04,1.019c0.577,0.41,1.051,0.861,1.429,1.354c0.377,0.493,0.661,0.956,0.848,1.396v9.453
				c-0.187,0.438-0.471,0.904-0.848,1.396c-0.378,0.492-0.853,0.941-1.429,1.352c-0.575,0.409-1.256,0.748-2.04,1.021
				c-0.786,0.273-1.691,0.408-2.718,0.408c-1.025,0-1.932-0.135-2.719-0.408c-0.782-0.271-1.464-0.612-2.04-1.021
				c-0.574-0.41-1.051-0.859-1.428-1.352c-0.378-0.492-0.661-0.958-0.85-1.396V143.107z M271.383,143.768
				c-0.25-0.608-0.7-1.152-1.35-1.634c-0.651-0.481-1.498-0.721-2.546-0.721c-1.024,0-1.867,0.239-2.527,0.721
				c-0.659,0.481-1.114,1.024-1.365,1.634v8.133c0.251,0.607,0.707,1.149,1.365,1.634c0.66,0.479,1.503,0.722,2.527,0.722
				c1.048,0,1.895-0.242,2.546-0.722c0.648-0.483,1.1-1.026,1.35-1.634V143.768z"/>
			<path fill="#2F3F1A" d="M279.296,153.941h5.527V136.67h-4.931v-2.355h8.07v19.627h5.527v2.354h-14.194V153.941L279.296,153.941z"
				/>
			<path fill="#2F3F1A" d="M297.981,153.941h5.525V136.67h-4.93v-2.355h8.071v19.627h5.526v2.354h-14.193V153.941z"/>
			<path fill="#2F3F1A" d="M316.509,143.107c0.188-0.44,0.469-0.903,0.845-1.396c0.38-0.492,0.855-0.941,1.43-1.354
				c0.576-0.405,1.259-0.748,2.043-1.019c0.785-0.271,1.688-0.409,2.716-0.409c1.026,0,1.931,0.137,2.717,0.409
				c0.785,0.271,1.465,0.613,2.041,1.019c0.577,0.41,1.053,0.861,1.428,1.354c0.378,0.493,0.662,0.956,0.851,1.396v9.453
				c-0.188,0.438-0.473,0.904-0.851,1.396c-0.375,0.492-0.851,0.941-1.428,1.352c-0.576,0.409-1.256,0.748-2.041,1.021
				c-0.786,0.273-1.689,0.408-2.717,0.408s-1.931-0.135-2.716-0.408c-0.784-0.271-1.467-0.612-2.043-1.021
				c-0.574-0.41-1.05-0.859-1.43-1.352c-0.376-0.492-0.658-0.958-0.845-1.396V143.107z M327.435,143.768
				c-0.25-0.608-0.699-1.152-1.35-1.634c-0.648-0.481-1.495-0.721-2.543-0.721c-1.027,0-1.867,0.239-2.529,0.721
				c-0.657,0.481-1.113,1.024-1.364,1.634v8.133c0.25,0.607,0.707,1.149,1.364,1.634c0.662,0.479,1.502,0.722,2.529,0.722
				c1.048,0,1.895-0.242,2.543-0.722c0.65-0.483,1.1-1.026,1.35-1.634V143.768z"/>
			<path fill="#2F3F1A" d="M389.771,139.371h2.795v1.288c0.355-0.459,0.784-0.851,1.287-1.179c0.503-0.324,1.143-0.486,1.915-0.486
				c0.859,0,1.56,0.206,2.104,0.613c0.545,0.406,0.965,0.896,1.258,1.459c0.397-0.607,0.895-1.104,1.489-1.491
				c0.599-0.386,1.347-0.582,2.247-0.582c0.649,0,1.211,0.122,1.682,0.36c0.47,0.242,0.861,0.535,1.177,0.879
				c0.314,0.348,0.564,0.711,0.753,1.099c0.188,0.39,0.325,0.729,0.409,1.024v13.939h-2.982v-13.406
				c-0.126-0.355-0.351-0.683-0.675-0.975c-0.325-0.293-0.791-0.439-1.399-0.439c-0.481,0-0.899,0.125-1.253,0.375
				c-0.358,0.252-0.642,0.566-0.85,0.941v13.504h-2.764v-13.406c-0.126-0.355-0.351-0.683-0.676-0.975
				c-0.323-0.293-0.79-0.439-1.396-0.439c-0.502,0-0.933,0.129-1.289,0.392c-0.355,0.262-0.626,0.571-0.815,0.925v13.504h-3.015
				v-16.924H389.771z"/>
			<path fill="#2F3F1A" d="M409.615,149.168c0.126-0.189,0.325-0.443,0.598-0.768c0.271-0.325,0.647-0.635,1.129-0.926
				c0.482-0.295,1.081-0.553,1.791-0.771c0.713-0.219,1.569-0.329,2.574-0.329c1.11,0,2.067,0.146,2.874,0.438
				c0.806,0.293,1.481,0.649,2.024,1.069v-4.114c-0.272-0.627-0.738-1.18-1.397-1.65c-0.659-0.469-1.554-0.704-2.684-0.704
				c-0.566,0-1.058,0.058-1.476,0.172c-0.42,0.115-0.771,0.257-1.055,0.424c-0.282,0.167-0.518,0.347-0.706,0.534
				s-0.323,0.357-0.411,0.502v1.508h-2.917v-2.512c0.104-0.146,0.302-0.393,0.594-0.74c0.294-0.345,0.702-0.689,1.227-1.035
				c0.522-0.344,1.176-0.654,1.96-0.926c0.786-0.271,1.713-0.408,2.781-0.408c1.067,0,2.008,0.137,2.826,0.408
				c0.815,0.271,1.518,0.613,2.102,1.02c0.587,0.41,1.071,0.859,1.447,1.353s0.658,0.956,0.847,1.396v13.189h-3.046v-1.414
				c-0.543,0.484-1.242,0.912-2.088,1.29c-0.847,0.378-1.837,0.565-2.968,0.565c-0.984,0-1.833-0.104-2.544-0.315
				c-0.711-0.207-1.305-0.452-1.775-0.735c-0.469-0.281-0.842-0.576-1.114-0.881c-0.271-0.303-0.471-0.537-0.597-0.705v-4.934
				H409.615z M412.693,152.841c0.106,0.104,0.252,0.242,0.44,0.409c0.189,0.169,0.429,0.331,0.723,0.486
				c0.292,0.156,0.64,0.293,1.036,0.408s0.859,0.174,1.384,0.174c1.087,0,1.992-0.188,2.716-0.564
				c0.722-0.378,1.261-0.807,1.615-1.289v-1.884c-0.333-0.481-0.867-0.91-1.601-1.288c-0.731-0.375-1.644-0.564-2.73-0.564
				c-1.048,0-1.85,0.164-2.403,0.488c-0.556,0.324-0.947,0.621-1.179,0.895L412.693,152.841L412.693,152.841z"/>
			<path fill="#2F3F1A" d="M428.679,153.941h4.111v-12.217h-4.111v-2.354h7.097v2.229c0.585-0.606,1.398-1.129,2.434-1.57
				c1.036-0.439,2.351-0.659,3.94-0.659c0.083,0,0.184,0,0.299,0s0.287,0.011,0.519,0.032v2.764
				c-0.252-0.02-0.445-0.032-0.582-0.032c-0.136,0-0.234,0-0.297,0c-1.509,0-2.781,0.173-3.817,0.519
				c-1.035,0.344-1.816,0.759-2.338,1.24v10.049h6.155v2.354H428.68L428.679,153.941L428.679,153.941z"/>
			<path fill="#2F3F1A" d="M448.21,134.314h3.142v12.563h0.438l7.692-7.506h2.073v1.854l-5.84,5.526l6.093,7.692v1.853h-2.292
				l-5.904-7.409l-2.26,2.104v5.306h-3.143L448.21,134.314L448.21,134.314z"/>
			<path fill="#2F3F1A" d="M466.047,143.107c0.207-0.44,0.5-0.903,0.879-1.396c0.375-0.492,0.856-0.941,1.442-1.354
				c0.587-0.405,1.276-0.748,2.073-1.019c0.794-0.271,1.716-0.409,2.763-0.409c1.046,0,1.969,0.137,2.764,0.409
				c0.794,0.271,1.477,0.603,2.042,0.989c0.563,0.389,1.021,0.795,1.364,1.225c0.346,0.428,0.603,0.813,0.77,1.146v5.873h-10.959
				v3.328c0.271,0.607,0.745,1.149,1.415,1.634c0.669,0.479,1.539,0.722,2.604,0.722c1.066,0,1.937-0.242,2.607-0.722
				c0.669-0.483,1.14-1.026,1.414-1.634v-1.1h2.918v2.166c-0.188,0.357-0.455,0.756-0.8,1.193c-0.347,0.439-0.801,0.848-1.367,1.227
				c-0.563,0.375-1.239,0.694-2.025,0.957c-0.784,0.26-1.7,0.393-2.747,0.393s-1.969-0.135-2.763-0.408
				c-0.797-0.271-1.486-0.612-2.073-1.021c-0.586-0.41-1.067-0.859-1.442-1.352c-0.379-0.492-0.672-0.958-0.879-1.396V143.107
				L466.047,143.107z M477.228,146.374v-2.606c-0.274-0.608-0.745-1.152-1.414-1.634c-0.671-0.481-1.541-0.721-2.607-0.721
				s-1.937,0.239-2.604,0.721c-0.67,0.481-1.145,1.024-1.415,1.634v2.606H477.228z"/>
			<path fill="#2F3F1A" d="M488.592,141.725h-3.954v-2.354h3.954v-5.057h3.142v5.057h6.781v2.354h-6.781v10.93
				c0.083,0.127,0.229,0.279,0.44,0.457c0.208,0.176,0.5,0.342,0.878,0.502c0.377,0.154,0.857,0.291,1.444,0.406
				c0.586,0.115,1.318,0.172,2.197,0.172c0.461,0,0.88-0.008,1.257-0.031c0.376-0.021,0.67-0.042,0.879-0.063v2.23
				c-0.23,0.042-0.622,0.1-1.176,0.171c-0.555,0.073-1.223,0.11-1.996,0.11c-1.191,0-2.203-0.094-3.028-0.281
				c-0.828-0.188-1.514-0.426-2.058-0.708c-0.544-0.283-0.969-0.595-1.271-0.942c-0.305-0.344-0.54-0.664-0.708-0.955
				L488.592,141.725L488.592,141.725z"/>
			<path fill="#2F3F1A" d="M503.604,153.941h5.526v-12.217h-4.931v-2.354h8.072v14.571h5.526v2.354h-14.194V153.941z
				 M508.597,133.497c0.104-0.208,0.334-0.407,0.689-0.597c0.355-0.188,0.784-0.281,1.289-0.281c0.502,0,0.933,0.094,1.288,0.281
				c0.355,0.188,0.584,0.389,0.689,0.597v2.011c-0.105,0.209-0.334,0.408-0.689,0.598c-0.355,0.188-0.786,0.281-1.288,0.281
				c-0.505,0-0.934-0.094-1.289-0.281c-0.355-0.188-0.587-0.387-0.689-0.598V133.497z"/>
			<path fill="#2F3F1A" d="M522.32,139.371h2.95v1.413c0.544-0.501,1.209-0.927,1.993-1.271c0.789-0.345,1.731-0.52,2.844-0.52
				c0.921,0,1.722,0.128,2.401,0.377c0.682,0.251,1.258,0.555,1.727,0.91c0.472,0.357,0.854,0.744,1.149,1.162
				c0.291,0.42,0.512,0.785,0.656,1.1v13.753h-3.14v-13.03c-0.104-0.168-0.251-0.357-0.438-0.565
				c-0.188-0.212-0.432-0.404-0.724-0.583c-0.293-0.176-0.639-0.329-1.036-0.454c-0.398-0.126-0.859-0.188-1.382-0.188
				c-0.942,0-1.732,0.164-2.371,0.487c-0.641,0.325-1.138,0.696-1.492,1.115v13.219h-3.14L522.32,139.371L522.32,139.371z"/>
			<path fill="#2F3F1A" d="M540.908,155.826h3.017v1.539c0.104,0.167,0.25,0.355,0.438,0.566c0.189,0.205,0.431,0.401,0.724,0.58
				c0.294,0.176,0.64,0.323,1.035,0.439c0.396,0.115,0.849,0.172,1.352,0.172c1.068,0,1.914-0.203,2.546-0.611
				c0.627-0.408,1.075-0.916,1.349-1.523v-4.396c-0.544,0.459-1.197,0.842-1.962,1.145c-0.766,0.304-1.659,0.455-2.688,0.455
				c-0.921,0-1.722-0.125-2.399-0.375c-0.684-0.25-1.257-0.553-1.729-0.91c-0.471-0.356-0.854-0.742-1.146-1.162
				c-0.292-0.419-0.512-0.786-0.656-1.098v-8.104c0.146-0.314,0.364-0.68,0.656-1.1c0.294-0.418,0.678-0.805,1.146-1.162
				c0.473-0.355,1.046-0.659,1.729-0.91c0.68-0.25,1.479-0.377,2.399-0.377c1.067,0,1.996,0.168,2.782,0.504
				c0.781,0.334,1.447,0.743,1.992,1.223v-1.349h3.015v18.245c-0.188,0.46-0.471,0.927-0.85,1.398
				c-0.376,0.469-0.848,0.895-1.412,1.271c-0.565,0.375-1.244,0.684-2.041,0.925c-0.797,0.24-1.704,0.36-2.731,0.36
				c-1.024,0-1.916-0.123-2.668-0.377c-0.753-0.25-1.396-0.549-1.935-0.893c-0.531-0.346-0.956-0.713-1.271-1.101
				c-0.313-0.39-0.542-0.729-0.689-1.019L540.908,155.826L540.908,155.826z M543.925,149.924c0.104,0.166,0.25,0.354,0.438,0.563
				c0.189,0.211,0.431,0.404,0.724,0.582c0.294,0.176,0.64,0.328,1.035,0.455c0.396,0.127,0.86,0.188,1.382,0.188
				c0.922,0,1.706-0.156,2.356-0.471c0.647-0.314,1.15-0.691,1.507-1.131v-7.033c-0.355-0.418-0.858-0.79-1.507-1.115
				c-0.65-0.324-1.436-0.486-2.356-0.486c-0.521,0-0.984,0.062-1.382,0.188c-0.396,0.125-0.741,0.277-1.035,0.454
				c-0.293,0.179-0.539,0.372-0.736,0.583c-0.199,0.207-0.342,0.396-0.425,0.566V149.924z"/>
			<path fill="#2F3F1A" d="M619.383,141.725h-3.954v-2.354h3.954v-5.057h3.142v5.057h6.783v2.354h-6.783v10.93
				c0.084,0.127,0.229,0.279,0.439,0.457c0.208,0.176,0.503,0.342,0.879,0.502c0.378,0.154,0.858,0.291,1.443,0.406
				c0.589,0.115,1.32,0.172,2.199,0.172c0.461,0,0.88-0.008,1.257-0.031c0.376-0.021,0.67-0.042,0.879-0.063v2.23
				c-0.229,0.042-0.622,0.1-1.177,0.171c-0.555,0.073-1.221,0.11-1.995,0.11c-1.192,0-2.205-0.094-3.029-0.281
				c-0.827-0.188-1.515-0.426-2.061-0.708c-0.542-0.283-0.967-0.595-1.269-0.942c-0.305-0.344-0.54-0.664-0.709-0.955
				L619.383,141.725L619.383,141.725z"/>
			<path fill="#2F3F1A" d="M634.396,153.941h5.527v-12.217h-4.931v-2.354h8.069v14.571h5.528v2.354h-14.195L634.396,153.941
				L634.396,153.941z M639.391,133.497c0.103-0.208,0.334-0.407,0.688-0.597c0.355-0.188,0.785-0.281,1.288-0.281
				c0.502,0,0.933,0.094,1.289,0.281c0.354,0.188,0.584,0.389,0.689,0.597v2.011c-0.105,0.209-0.335,0.408-0.689,0.598
				c-0.356,0.188-0.787,0.281-1.289,0.281c-0.503,0-0.933-0.094-1.288-0.281c-0.354-0.188-0.587-0.387-0.688-0.598V133.497z"/>
		</g>
		<path fill="#84A939" d="M358.87,144.332c0.104-0.188,0.335-0.381,0.691-0.581c0.355-0.198,0.807-0.296,1.35-0.296
			c0.546,0,0.994,0.098,1.351,0.296c0.356,0.199,0.586,0.394,0.69,0.581v2.199c-0.104,0.209-0.334,0.408-0.69,0.597
			s-0.804,0.284-1.351,0.284c-0.543,0-0.994-0.094-1.35-0.284c-0.355-0.188-0.588-0.388-0.691-0.597V144.332z"/>
		<path fill="#84A939" d="M583.082,144.332c0.105-0.188,0.334-0.381,0.691-0.581c0.356-0.198,0.805-0.296,1.349-0.296
			c0.547,0,0.997,0.098,1.354,0.296c0.354,0.199,0.583,0.394,0.689,0.581v2.199c-0.106,0.209-0.337,0.408-0.689,0.597
			c-0.356,0.188-0.808,0.284-1.354,0.284c-0.544,0-0.991-0.094-1.349-0.284c-0.357-0.188-0.586-0.388-0.691-0.597V144.332z"/>
	</g>
	<g display="inline">
		<path fill="#2F3F1A" d="M517.087,100.961l-6.174,20.354h-23.065v-17.446l-5.154,17.446H472.06c-11.922,0-21.91-3.547-29.964-10.64
			c-8.486-7.416-12.727-16.979-12.727-28.696c0-10.64,3.783-19.988,11.356-28.051c7.572-8.062,16.621-12.093,27.146-12.093
			c7.089,0,13.747,2.102,19.977,6.3V33.92h-8.077l6.139-20.355h22.616v87.396H517.087z M487.848,100.961V82.868
			c0-6.246-1.663-11.253-4.986-15.022c-3.325-3.771-8.043-5.654-14.152-5.654c-5.258,0-9.629,1.885-13.111,5.654
			c-3.486,3.77-5.229,8.291-5.229,13.566c0,6.141,1.984,10.934,5.952,14.379c3.968,3.447,9.063,5.17,15.282,5.17H487.848z"/>
		<path fill="#2F3F1A" d="M596.728,82.564c0,2.467-0.056,4.347-0.161,5.635h-53.472c1.185,4.9,3.878,8.439,8.077,10.617
			c4.847,2.615,10.822,3.922,17.933,3.922c6.999,0,15.346-1.832,25.039-5.494l-6.14,21.302c-5.602,2.278-13.354,3.415-23.263,3.415
			c-12.276,0-22.455-3.443-30.531-10.339c-8.509-7.323-12.763-17.067-12.763-29.24c0-11.198,3.716-20.758,11.146-28.672
			c7.432-7.916,16.745-11.875,27.947-11.875c11.521,0,20.567,3.974,27.14,11.915C593.711,61.155,596.728,70.76,596.728,82.564z
			 M575.242,73.82c-0.755-3.721-1.938-6.434-3.555-8.135c-2.907-3.084-6.946-4.626-12.115-4.626
			c-8.723,0-14.109,4.255-16.154,12.761H575.242z"/>
		<path fill="#2F3F1A" d="M674.106,42.158l-27.301,79.156h-22.777l-26.493-79.156h23.103l14.861,50.402l15.348-50.402H674.106z"/>
	</g>
</g>
<g>
	<path fill="#7C9A3D" d="M146.885,95.098c-1.77,1.77-4.212,2.863-6.911,2.863c-2.698,0-5.141-1.094-6.909-2.863L76.509,38.543
		l56.556-56.554c1.768-1.767,4.211-2.861,6.909-2.861c2.699,0,5.142,1.094,6.91,2.861l56.556,56.555L146.885,95.098z"/>
	<g>
		<path fill="#FFFFFF" d="M130.477,12.786l-6.073-6.225c-0.946-0.966-2.497-0.985-3.464-0.041L89.626,37.119
			c-0.968,0.946-0.988,2.498-0.042,3.466l9.903,9.322v-3.414l30.946-30.243C131.403,15.305,131.421,13.756,130.477,12.786z"/>
		<path fill="#FFFFFF" d="M101.084,50.979l21.814,21.098c0.968,0.944,2.52,0.925,3.462-0.039l6.076-6.228
			c0.942-0.967,0.926-2.519-0.042-3.464l-21.45-20.741v-3.413l-9.86,9.466V50.979z"/>
		<path fill="#FFFFFF" d="M139.157,55.771c-0.894,2.315-3.497,3.466-5.813,2.574l-2.303-0.893c-2.317-0.893-3.467-3.497-2.572-5.813
			l11.145-29.073c0.894-2.314,3.496-3.466,5.812-2.573l2.303,0.89c2.316,0.897,3.467,3.498,2.572,5.814L139.157,55.771z"/>
		<path fill="#FFFFFF" d="M149.035,65.551l6.073,6.225c0.945,0.969,2.497,0.985,3.462,0.042l31.314-30.599
			c0.969-0.946,0.988-2.498,0.042-3.466l-9.902-9.321v3.413l-30.948,30.243C148.109,63.034,148.091,64.586,149.035,65.551z"/>
		<path fill="#FFFFFF" d="M178.482,27.303L156.668,6.204c-0.968-0.945-2.52-0.926-3.462,0.039l-6.076,6.227
			c-0.942,0.966-0.926,2.518,0.042,3.464l21.45,20.744v3.411l2.949-2.525c0.322-0.124,0.624-0.309,0.88-0.57l1.084-1.111
			l4.947-5.261V27.303z"/>
	</g>
</g>
<g>
	<g>
		<g>
			<path fill="#7C9A3D" d="M110.108,110.165v29.059h-5.897v-22.478h-0.641l-5.684,21.195h-5.897l-5.683-21.195h-0.641v22.478h-5.897
				v-29.059H89.81l5.128,21.195l5.128-21.195H110.108 M112.208,108.065h-2.1h-10.042h-1.652l-0.389,1.605l-3.087,12.759
				l-3.087-12.759l-0.389-1.605H89.81H79.767h-2.1v2.1v29.059v2.1h2.1h5.897h2.1v-2.1v-8.928l2.196,8.189l0.417,1.556h1.611h5.897
				h1.611l0.417-1.556l2.196-8.19v8.929v2.1h2.1h5.897h2.1v-2.1v-29.059V108.065L112.208,108.065z"/>
		</g>
	</g>
	<g>
		<g>
			<path fill="#7C9A3D" d="M135.731,110.165l6.538,29.059h-5.897l-1.153-5.256h-10.171l-1.154,5.256h-5.897l6.538-29.059H135.731
				 M137.411,108.065h-1.68h-11.196h-1.68l-0.369,1.639l-6.538,29.059l-0.576,2.561h2.625h5.897h1.689l0.362-1.649l0.792-3.606
				h6.793l0.791,3.606l0.362,1.649h1.689h5.897h2.625l-0.576-2.561l-6.538-29.059L137.411,108.065L137.411,108.065z"/>
		</g>
	</g>
	<g>
		<path fill="#7C9A3D" d="M130.133,120.288l1.378,6.452h-2.756L130.133,120.288 M131.158,115.036h-2.051l-2.948,13.804h7.948
			L131.158,115.036L131.158,115.036z"/>
	</g>
	<g>
		<g>
			<path fill="#7C9A3D" d="M168.977,110.165v5.128l-12.136,18.033v0.77h12.136v5.128h-19.23v-5.085l12.136-18.076v-0.77h-12.136
				v-5.128H168.977 M171.077,108.065h-2.1h-19.23h-2.1v2.1v5.128v2.1h2.1h8.713l-10.457,15.575l-0.356,0.531v0.64v5.085v2.1h2.1
				h19.23h2.1v-2.1v-5.128v-2.1h-2.1h-8.709l10.452-15.53l0.358-0.532v-0.641v-5.128V108.065L171.077,108.065z"/>
		</g>
	</g>
	<g>
		<g>
			<path fill="#7C9A3D" d="M200.181,110.165v29.059h-9.701l-7.265-23.931h-0.427v23.931h-5.897v-29.059h9.957l7.008,23.931h0.427
				v-23.931H200.181 M202.281,108.065h-2.1h-5.897h-2.1v2.1v10.747l-3.32-11.337l-0.442-1.51h-1.573h-9.957h-2.1v2.1v29.059v2.1h2.1
				h5.897h2.1v-2.1v-11.191l3.583,11.802l0.452,1.489h1.557h9.701h2.1v-2.1v-29.059V108.065L202.281,108.065z"/>
		</g>
	</g>
</g>
</svg>
